<?xml version="1.0" encoding="utf-8"?>
<!-- Generator: Adobe Illustrator 19.2.0, SVG Export Plug-In . SVG Version: 6.00 Build 0)  -->
<svg version="1.1" id="Layer_1" xmlns="http://www.w3.org/2000/svg" xmlns:xlink="http://www.w3.org/1999/xlink" x="0px" y="0px"
	 viewBox="0 0 800 800" style="enable-background:new 0 0 800 800;" xml:space="preserve">
<style type="text/css">
	.st0{fill:#71439A;}
	.st1{fill:#A286BF;}
</style>
<g>
	<path class="st0" d="M176.6,196.9c0,3,0,5.3,0,7.6c0,35.6,0,71.2-0.1,106.9c0,3.2,0.8,4,4,4c55.4-0.1,110.8,0,166.3-0.1
		c3.6,0,4.5,0.9,4.4,4.4c-0.2,17.6-0.2,35.3,0,52.9c0,3.8-1.3,4.3-4.6,4.3c-55-0.1-110.1-0.1-165.1,0c-5.5,0-4.9-0.7-4.9,4.8
		c0,39,0,77.9,0.1,116.9c0,3.4-0.8,4.5-4.4,4.5c-18.3-0.2-36.5-0.1-54.8,0c-3,0-3.8-0.8-3.8-3.9c0.1-86.5,0.1-173.2,0-259.7
		c0-2,0.1-3.4,2.2-4.7c19.5-12.1,39-24.2,58.5-36.4C174.9,197.7,175.5,197.5,176.6,196.9z"/>
	<path class="st0" d="M619.6,508.5c-27.7-0.6-53.4-7.2-75.9-23.9c-3.2-2.4-6.2-5.4-9.3-7.9c-1.4-1.1-1.3-2.1,0-3.3
		c11.3-11.4,22.4-22.7,33.6-34.1c1.8-1.8,2.5-0.9,3.8,0.5c12.4,12.9,27.2,20.9,45.3,22.3c7.5,0.6,14.7-0.5,21.7-3.2
		c14.9-6,19-28.3,5.1-38.4c-6.7-4.9-14.1-8-21.8-10.7c-12.9-4.4-26.1-8-38.5-13.8c-18.2-8.4-32.2-20.8-36.9-40.8
		c-8.3-34.9,4.8-66.9,39.6-81.3c43-17.8,84-12.6,121.6,15.9c2.8,2.1,3.1,3.4,0.5,6.1c-10.5,10.7-20.7,21.6-30.9,32.5
		c-1.6,1.7-2.4,2.1-4.4,0.1c-14.2-14.8-31.6-20.5-51.8-16.7c-14.2,2.6-22.4,14.1-19.5,27c1.1,5.4,4.7,9,9.2,11.7
		c6.3,3.9,13.4,6.2,20.3,8.6c10.9,3.8,21.9,7.4,32.7,11.6c14,5.4,26.1,13.7,35.2,26.1c7,9.7,10,20.6,10.2,32.3
		c0.6,23.7-6.8,43.9-25.3,59.4c-12.4,10.5-27.2,15.9-43,18.6C633.9,507.9,626.8,508.6,619.6,508.5z"/>
	<path class="st0" d="M278.5,62.5c0.9,0.7,1.7,1.3,2.5,1.8c57.4,43.3,114.9,86.6,172.3,130c10.9,8.3,21.7,16.5,32.6,24.7
		c1.5,1.1,2.3,1.8,0.8,3.8c-6.8,8.6-13.4,17.3-20.1,26.1c-1.4,1.8-2.3,2.1-4.1,0.6c-60.3-45.6-120.8-91.2-181.1-136.8
		c-3-2.3-4.8-2.4-8-0.2c-65,44.9-130.3,89.7-195.3,134.8c-2.8,1.8-3.8,1.5-5.5-1c-5.6-8.5-11.4-16.9-17.3-25.2
		c-1.8-2.6-1.6-3.7,1-5.4c56.5-38.8,113.1-77.8,169.6-116.7c16.5-11.5,33.2-22.9,49.8-34.4C276.6,63.7,277.5,63.2,278.5,62.5z"/>
	<path class="st0" d="M364.2,190.7c6.2,4.5,11.6,8.5,17.1,12.4c14.4,10.5,28.6,20.9,43,31.3c2,1.4,2.9,2.8,2.9,5.3
		c-0.1,86.4-0.1,172.8,0,259.2c0,3.1-0.9,3.8-3.9,3.8c-18.4-0.1-36.8-0.1-55.2,0c-2.8,0-4-0.5-4-3.7c0.1-101.7,0.1-203.4,0.1-305.2
		C364.2,193.1,364.2,192.3,364.2,190.7z"/>
	<path class="st0" d="M520.4,386.5c0,37.2,0,74.6,0.1,111.8c0,3.3-0.6,4.6-4.3,4.5c-16.3-0.2-32.6-0.2-49.1,0
		c-2.9,0-3.6-0.8-3.6-3.7c0.1-75.3,0.1-150.6,0-225.9c0-3.1,0.9-3.8,3.9-3.8c16.3,0.1,32.6,0.1,49.1,0c3.2,0,4,0.9,4,4
		C520.4,311.1,520.4,348.8,520.4,386.5z"/>
	<path class="st1" d="M387.1,594.1c0,38.1-22.4,67-58.4,74.3c-27.6,5.6-52.9,0-73.2-20.6c-12.1-12.3-18.4-27.6-19.8-44.6
		c-1.7-20.5,2.1-39.8,15.3-56.2c13.2-16.5,30.8-24.9,51.8-26.8c14.7-1.3,29,0.5,42.5,6.7c22.2,10.1,35.2,27.5,40.3,51
		C386.8,583.7,387.5,589.4,387.1,594.1z M319.6,652.4c10.8-0.1,26.5-7.7,37-24.6c7.4-11.9,9.8-25.2,8.5-39.2
		c-2.4-26.8-21.9-48.8-48.9-50.7c-20-1.3-36.4,5.1-48.1,21.5c-9.1,12.8-11.8,27.2-10.6,42.7C259.8,630.9,282.1,652.3,319.6,652.4z"
		/>
	<path class="st1" d="M112.8,594.9c0-22.5,0.1-44.9-0.1-67.4c0-3.1,0.7-4.3,4-4c4,0.3,8.2,0.2,12.3,0c3-0.2,3.9,0.7,3.8,3.8
		c-0.1,17.2,0,34.5-0.1,51.7c0,3.4,0.8,4.5,4.4,4.5c21.4-0.2,42.6-0.2,64,0c3.7,0,4.4-1.1,4.4-4.5c-0.1-17.1,0-34.2-0.1-51.4
		c0-3.1,0.6-4.4,3.9-4.1c4.6,0.3,9.2,0.1,13.8,0c1.7,0,2.6,0.6,2.4,2.4c-0.1,0.6,0,1.3,0,2c0,44.9,0,89.9,0.1,134.8
		c0,3.3-0.8,4.5-4.3,4.3c-4.1-0.3-8.4-0.2-12.6,0c-2.8,0.1-3.4-0.9-3.4-3.4c0.1-19.2-0.1-38.3,0.1-57.4c0-3.9-1.1-4.9-4.9-4.8
		c-21.4,0.2-42.6,0.1-64,0c-3.1,0-3.8,0.9-3.8,3.9c0.1,19.2,0,38.3,0.1,57.4c0,3.9-1.1,4.8-4.7,4.5c-3.6-0.3-7.1-0.3-10.7,0
		c-3.6,0.3-4.7-0.7-4.7-4.5C113,639.8,112.8,617.4,112.8,594.9z"/>
	<path class="st1" d="M620.8,594.9c0-22.4,0.1-44.9-0.1-67.3c0-3.2,0.9-4,4-4c27.9,0.1,55.8,0.1,83.9,0c3.6,0,4.4,1.1,4.1,4.4
		c-0.2,3-0.2,6.1,0,9.2c0.3,3.3-0.7,4.4-4.1,4.4c-21.1-0.2-42.4,0-63.5-0.2c-3.7,0-4.5,1-4.4,4.5c0.2,11.5,0.2,23,0,34.5
		c0,3.1,0.8,4.1,4,4c19.9-0.1,39.9,0,59.7-0.1c3.2,0,4.7,0.6,4.4,4.1c-0.3,3.1-0.2,6.4,0,9.5s-1,3.9-4,3.9
		c-19.3-0.1-38.5-0.1-57.8,0c-7,0-6.1-0.9-6.2,6c0,12.5,0.1,25-0.1,37.6c0,3.2,1,4.1,4.1,4c22.3-0.1,44.7,0,67-0.1
		c2.9,0,4.1,0.6,3.9,3.8c-0.2,3.7-0.2,7.4,0,11.1c0.1,2.4-0.8,3-3.1,3c-29.6-0.1-59.2-0.1-88.8,0c-3.2,0-3-1.6-3-3.8
		C620.8,640.3,620.8,617.7,620.8,594.9z"/>
	<path class="st1" d="M396.2,574.2c0-15.7,0.1-31.4-0.1-47.1c0-2.9,0.8-3.8,3.7-3.7c4.3,0.2,8.4,0.2,12.6,0c3.2-0.2,3.8,1,3.8,3.9
		c-0.1,28.3,0,56.4-0.1,84.7c0,7.2,0.8,14.2,3.8,20.9c5.4,12.4,15.1,18.5,28.4,19.3c11.1,0.7,21.4-1.5,29.3-10.2
		c6.3-6.9,9.1-15.5,9.2-24.6c0.3-29.5,0.2-58.9,0.2-88.5c0-1,0.1-2.1,0-3.1c-0.1-1.8,0.6-2.5,2.4-2.4c5.1,0.1,10.2,0.1,15.3,0
		c2.1,0,2.5,0.8,2.5,2.8c0,30,0.2,60-0.1,90c-0.1,13.3-3.9,25.7-12.9,36.1c-9.1,10.6-20.7,16.3-34.5,17.7c-10.7,1-21.1,0.6-31.3-3.6
		c-17.8-7.2-27.7-20.9-31.5-39.4c-0.7-3.7-0.9-7.4-0.9-11C396.2,602,396.2,588.1,396.2,574.2L396.2,574.2z"/>
	<path class="st1" d="M589.6,628.1c0.6-7.4-3.3-13-9.7-17.2c-7.6-5.2-16.5-7.1-25.2-10c-8.4-2.9-16.7-5.7-23.7-11.4
		c-9.5-7.8-12.6-18.2-12.6-30.1c-0.1-18.7,15.5-33.8,33.4-37.5c17.6-3.7,34.2-2.1,49.5,8c8.3,5.5,8.3,5.6,1.3,12.4
		c-2,1.8-3.9,3.7-5.7,5.6c-1.5,1.7-2.5,1.8-4.3,0c-10-10.5-22.3-13.3-36.1-9.8c-13.2,3.4-20.5,15.3-17.1,27.7
		c2.2,7.8,8.2,11.8,15.2,14.5c8.7,3.2,17.6,6.1,26.3,9.2c9.4,3.3,17.8,8.3,23.6,16.9c9.7,14.4,8.6,44.7-15.7,57.6
		c-21.9,11.6-54.6,7.8-72.4-10.7c-3.3-3.4-3.3-3.4,0.3-6.5c3.2-2.6,6.4-5.4,9.7-8.2c1.8-1.6,2.9-1.6,4.6,0.3
		c10.1,11.9,23,16.3,38.4,13.3C581.6,649.8,589.4,640.5,589.6,628.1z"/>
	<path class="st0" d="M647.8,727.9c4.9-12.2,9.7-23.6,14.4-35c1.4-3.4,4.4-4.7,7.8-3.7c1.4,0.5,1.1,1.5,1.1,2.4c0,14,0,28,0,42.2
		c0,1.8-0.6,2.4-2.4,2.5c-2,0-2.8-0.6-2.6-2.6c0.1-10.6,0-21.1,0-31.8c0-1.4,0.3-2.8-0.6-4.6c-1.3,2.8-2.3,5.2-3.3,7.6
		c-3.9,9.2-7.7,18.4-11.6,27.5c-0.7,1.5-0.5,3.9-3,3.9c-2.4-0.1-2.2-2.5-2.9-4c-4.7-10.8-9.2-21.6-13.8-32.4c-0.3-0.9-0.5-2-1.8-2.6
		c0,12.2,0,24.1,0,36.1c0,1.4,0.6,3.1-2.1,3.2c-2.1,0-2.9-0.6-2.9-2.8c0.1-13.7,0-27.3,0.1-41c0-1.1-0.8-3.3,1.5-3.2
		c2.4,0.1,5.4-1.6,6.9,2.1c4.4,10.8,8.8,21.5,13.3,32.2C646.4,724.6,647,725.8,647.8,727.9z"/>
	<path class="st0" d="M404.2,697.1c-1.3,1.4-0.8,2.6-0.8,3.9c0,10.6,0,21.1,0,31.8c0,1.8,0.3,3.6-2.5,3.4c-2.8,0-2.2-1.8-2.2-3.4
		c0-13.2,0-26.5,0-39.8c0-1.3-1-3.4,1.3-3.8c2.1-0.2,4.4-0.8,6.1,1.7c7,10.5,14.4,20.8,21.5,31.1c1.4,2,2.6,3.9,4.8,5.6
		c0-3.4,0-7,0-10.5c0-8.3,0-16.5,0-24.9c0-1.6-0.5-3.3,2.3-3.3c2.8,0,2.6,1.5,2.6,3.4c0,13.2,0,26.5,0,39.8c0,1.3,0.9,3.4-1.4,3.7
		c-2.1,0.2-4.4,0.9-5.9-1.5c-1.4-2.2-2.9-4.3-4.4-6.3c-6.4-9.3-12.9-18.7-19.3-28C405.7,699.1,405,698.2,404.2,697.1z"/>
	<path class="st0" d="M589.7,688.2c14.2,0,24.8,10.7,24.6,24.7c-0.1,14.1-10.7,24.5-24.9,24.4s-24.6-10.6-24.6-24.8
		C564.9,698.3,575.3,688.1,589.7,688.2z M589.4,732.9c11.5,0,19.8-8.5,19.8-20.2c0-11.6-8.3-20.1-19.5-20.2
		c-11.5-0.1-19.6,8.4-19.6,20.3C570,724.5,578.1,732.9,589.4,732.9z"/>
	<path class="st0" d="M268,712.6c0-6.9,0-13.8,0-20.7c0-1.7,0.1-3,2.4-2.9c6.1,0.3,12.2-0.5,18.3,0.6c12.1,2.1,20.2,11.4,20.1,23.2
		s-8.5,21.1-20.6,22.9c-6,0.8-11.9,0.3-17.9,0.5c-2.3,0.1-2.3-1.3-2.3-3C268.1,726.4,268,719.5,268,712.6z M272.9,712.5
		c0,3,0,5.9,0,8.8c0,11.4,0,11.4,11.4,10.6c11-0.8,18.7-8,19.2-18.2c0.5-10.2-6.4-18.4-17.2-19.9c-3.8-0.5-7.7-0.1-11.5-0.2
		c-2-0.1-2,1-2,2.4C272.9,701.5,272.9,706.9,272.9,712.5z"/>
	<path class="st0" d="M204,712.6c0,6.9,0,13.8,0,20.7c0,2-0.2,3.1-2.6,3.1c-2.5,0-2.5-1.5-2.4-3.2c0-5.2-0.1-10.5,0.1-15.6
		c0.1-2.8-0.9-3.4-3.4-3.3c-6.2,0.1-12.5,0.2-18.7,0c-3-0.1-3.7,0.9-3.6,3.7c0.2,5.2,0,10.5,0.1,15.6c0,1.7-0.1,2.9-2.4,2.9
		s-2.8-0.9-2.8-3c0.1-13.8,0-27.6,0-41.2c0-1.7,0.1-2.9,2.4-2.9s2.8,1,2.6,3c-0.1,4.8,0.1,9.7-0.1,14.5c-0.1,2.4,0.8,3.1,3.1,3
		c6.7-0.1,13.2-0.1,19.9,0c2.3,0,2.8-0.9,2.8-2.9c-0.1-4.8,0-9.7,0-14.5c0-1.8,0.1-3.1,2.5-3.1c2.5,0,2.5,1.4,2.5,3.2
		C204,699,204,705.8,204,712.6z"/>
	<path class="st0" d="M337,714.1c4.6,7.4,9,14.4,13.4,21.7c-3.6,0.9-5.9,0.7-7.7-2.8c-3-5.6-6.4-11-9.8-16.4
		c-1.1-1.8-7.1-3.3-8.7-2.2c-1,0.7-0.6,1.8-0.6,2.9c0,5.4,0,10.7,0,16.1c0,1.7-0.1,2.9-2.4,2.9c-2.2,0-2.4-1-2.4-2.9
		c0-13.8,0-27.6,0-41.4c0-1.6,0-3,2.3-2.9c5.5,0.2,10.9-0.3,16.4,0.5c7.4,1.3,11.1,4.9,11.4,11.3c0.2,6.8-3.1,10.9-10.2,12.6
		C338.3,713.6,337.9,713.7,337,714.1z M323.6,701.7c0,2.1,0,4,0,6.1c0,1,0,2.2,1.5,2.2c4.8-0.1,9.8,0.7,14.4-1.1
		c3.2-1.3,4.7-3.8,4.7-7.2c-0.1-3.3-1.7-5.7-4.9-7c-2.3-0.9-4.7-1-7.1-1C323.6,693.4,323.6,693.4,323.6,701.7z"/>
	<path class="st0" d="M554.9,712.7c0,6.9,0,13.8,0,20.7c0,1.7,0,2.9-2.3,3c-2.3,0-2.8-0.9-2.8-3c0.1-5.5,0-10.9,0.1-16.4
		c0-2.2-0.7-2.9-2.9-2.9c-6.8,0.1-13.6,0.1-20.2,0c-2.1,0-2.6,0.7-2.6,2.6c0.1,5.6,0,11.3,0.1,16.8c0,1.8-0.5,2.8-2.5,2.8
		c-2.1,0-2.5-0.8-2.5-2.8c0.1-13.9,0.1-27.8,0-41.7c0-2,0.6-2.6,2.6-2.8c2.2,0,2.5,0.9,2.5,2.8c-0.1,4.9,0.1,10-0.1,14.9
		c0,2.2,0.6,2.9,2.8,2.9c6.7-0.1,13.2-0.1,19.9,0c2.3,0,3.1-0.7,3.1-3c-0.1-4.8,0-9.7-0.1-14.5c0-2,0.3-3,2.6-3s2.4,1.1,2.4,2.9
		C554.7,698.9,554.9,705.8,554.9,712.7z"/>
	<path class="st0" d="M358.8,712.7c0-6.8,0.1-13.6,0-20.3c0-2.4,0.5-3.4,3.1-3.3c7.9,0.1,15.9,0.1,23.8,0c1.8,0,2.9,0.2,2.9,2.4
		c0,2.2-1.4,2-2.9,2c-6.2,0-12.5,0.1-18.7,0c-2.3,0-3.2,0.6-3.1,3c0.2,3.4,0.1,6.9,0,10.3c-0.1,2.2,0.7,2.9,2.9,2.9
		c5.7-0.1,11.5,0,17.2,0c1.6,0,3-0.1,3,2.3c0,2.3-1.5,2-2.9,2c-5.6,0-11.3,0.1-16.9,0c-2.4-0.1-3.4,0.6-3.3,3.1
		c0.2,3.8,0.2,7.7,0,11.5c-0.1,2.6,0.6,3.6,3.3,3.4c6.2-0.2,12.5-0.1,18.7,0c1.5,0,3.4-0.6,3.3,2.2c-0.1,2.5-1.7,2.1-3.1,2.1
		c-8.2,0-16.3,0-24.5,0c-2.2,0-2.9-0.6-2.9-2.9C359,726.5,358.8,719.6,358.8,712.7z"/>
	<path class="st0" d="M688.8,709.2l23.4,0.2c0.2,0,0.3,0.1,0.3,0.3l0,3.2c0,0.4-0.3,0.8-0.8,0.8l-22.1,0.1c-0.4,0-0.8,0.4-0.8,0.8
		l0,2.8l0,13.9c0,0.4,0.4,0.8,0.8,0.8l23.8-0.2c0.4,0,0.8,0.3,0.8,0.8v2.7c0,0.4-0.3,0.8-0.8,0.8l-28.8,0.2c-0.4,0-0.8-0.3-0.8-0.8
		v-45.4c0-0.4,0.3-0.8,0.8-0.8h28.8c0.4,0,0.8,0.3,0.8,0.8v2.9c0,0.4-0.3,0.8-0.8,0.8h-24.1c-0.2,0-0.4,0.2-0.4,0.4"/>
	<path class="st0" d="M142.3,688.2c5.6,0,10.8,1.5,15.2,5.3c0.8,0.7,2.5,1.6,0.7,2.9c-1.1,0.8-2.2,2.9-4,0.7
		c-5.6-6.4-17.9-6.2-24.7,0c-7.4,6.7-8.7,19.1-2.9,27.7c5.2,7.7,15.7,10.5,24.1,6.3c1.6-0.8,3.2-1.7,4.3-3.2
		c1.4-1.8,2.6-1.5,4.1-0.3c2,1.6,0,2.4-0.8,3.3c-11.4,12.3-34,6.2-39.3-10.3C113.4,704,124.9,688.2,142.3,688.2z"/>
	<path class="st0" d="M478.8,688.2c3.7-0.1,7.5,0.9,10.6,3.6c0.8,0.7,2.8,1.4,1.1,2.9c-1.1,1-2.1,3.1-4.3,0.9
		c-3.2-3.2-7.2-3.9-11.7-2.6c-3.8,1-6.2,3.3-6.7,7.5c-0.3,3.8,1.4,6.4,5.5,8.2c3.3,1.4,6.8,2.4,10,3.7c6.2,2.4,9,6.5,8.6,12.9
		c-0.3,5.6-4,10-10,11.6c-6.5,1.7-12.6,0.8-17.9-3.7c-0.9-0.7-3.3-1.6-1.1-3.4c1.4-1.1,2.5-2.6,4.6-0.3c3.1,3.8,7.5,4.6,12.2,3.6
		c4-0.8,7-4,7.5-7.7c0.5-3.9-1.4-6.8-5.5-8.6c-2.5-1.1-5.3-1.8-7.9-2.9c-8.4-3-11.8-7.7-10.7-14.8
		C464.1,692.2,470.2,688.1,478.8,688.2z"/>
	<path class="st0" d="M233.8,712.8c0-6.9,0-13.8,0-20.7c0-1.6-0.1-3,2.3-3c2.5,0,2.5,1.3,2.5,3.1c0,11.8,0.1,23.8-0.1,35.6
		c0,3.1,0.6,4.3,3.9,4.1c5.2-0.3,10.5,0,15.7-0.1c1.6,0,2.6,0.1,2.6,2.2c0,2.1-1.1,2.2-2.6,2.2c-7.1,0-14.2-0.1-21.5,0
		c-2.5,0.1-2.9-1-2.9-3.2C234,726.2,233.8,719.6,233.8,712.8z"/>
	<path class="st0" d="M216.4,712.8c0-6.8,0-13.6,0-20.2c0-1.8-0.2-3.4,2.6-3.4c2.6,0,2.4,1.5,2.4,3.2c0,13.7,0,27.2,0,40.9
		c0,2-0.2,3-2.6,3c-2.6,0-2.4-1.5-2.4-3.2C216.4,726.2,216.4,719.6,216.4,712.8z"/>
	<path class="st0" d="M732.7,268.6h3l3.7,8l3.5-8h3l0.1,12.7l-2.3,0.1l-0.1-9.1l-4,9.1l-4.6-9.1l0,9.1h-2.2v-11.7V268.6L732.7,268.6
		z"/>
	<path class="st0" d="M455.1,690.6c-1.5,4.4-3.1,8.8-4.7,13.2c-0.6,1.4-2,1.1-3,0.9c-1.7-0.3-0.7-1.6-0.6-2.4
		c1-3.9,2.3-7.8,3.3-11.7c0.6-2.2,2.3-1.5,3.7-1.6C455,689.1,455.4,689.7,455.1,690.6z"/>
	<path class="st0" d="M731.4,268.7v2.3c0,0.1-0.1,0.1-0.1,0.1l-4.2,0c-0.1,0-0.1,0.1-0.1,0.1l0,10c0,0.1-0.1,0.1-0.1,0.1h-2.5
		c-0.1,0-0.1-0.1-0.1-0.1v-10c0-0.1-0.1-0.1-0.1-0.1h-4.3c-0.1,0-0.1-0.1-0.1-0.1l0-2.3c0-0.1,0.1-0.1,0.1-0.1h11.5
		C731.3,268.6,731.4,268.6,731.4,268.7z"/>
</g>
</svg>
