<?xml version="1.0" encoding="UTF-8" standalone="no"?>
<!-- Generator: Adobe Illustrator 19.2.0, SVG Export Plug-In . SVG Version: 6.00 Build 0)  -->

<svg
   xmlns:dc="http://purl.org/dc/elements/1.1/"
   xmlns:cc="http://creativecommons.org/ns#"
   xmlns:rdf="http://www.w3.org/1999/02/22-rdf-syntax-ns#"
   xmlns:svg="http://www.w3.org/2000/svg"
   xmlns="http://www.w3.org/2000/svg"
   xmlns:sodipodi="http://sodipodi.sourceforge.net/DTD/sodipodi-0.dtd"
   xmlns:inkscape="http://www.inkscape.org/namespaces/inkscape"
   enable-background="new 0 0 800 800"
   version="1.1"
   viewBox="0 0 800 800"
   xml:space="preserve"
   id="svg14"
   sodipodi:docname="icon-optimized.svg"
   inkscape:version="0.92.4 (5da689c313, 2019-01-14)"><defs
   id="defs18" /><sodipodi:namedview
   pagecolor="#ffffff"
   bordercolor="#666666"
   borderopacity="1"
   objecttolerance="10"
   gridtolerance="10"
   guidetolerance="10"
   inkscape:pageopacity="0"
   inkscape:pageshadow="2"
   inkscape:window-width="1600"
   inkscape:window-height="877"
   id="namedview16"
   showgrid="false"
   inkscape:zoom="0.59043416"
   inkscape:cx="344.27542"
   inkscape:cy="413.92027"
   inkscape:window-x="-8"
   inkscape:window-y="-8"
   inkscape:window-maximized="1"
   inkscape:current-layer="svg14"><sodipodi:guide
     position="69.2612,539.457"
     inkscape:color="rgb(167,0,255)"
     inkscape:label=""
     orientation="-0,1"
     id="guide4559"
     inkscape:locked="false" /><sodipodi:guide
     position="119.64,461.842"
     inkscape:color="rgb(167,0,255)"
     inkscape:label="End"
     orientation="-0,1"
     id="guide4563"
     inkscape:locked="false" /></sodipodi:namedview><metadata
   id="metadata2"><rdf:RDF><cc:Work
       rdf:about=""><dc:format>image/svg+xml</dc:format><dc:type
         rdf:resource="http://purl.org/dc/dcmitype/StillImage" /><dc:title /></cc:Work></rdf:RDF></metadata>
<style
   type="text/css"
   id="style4">
	.st0{fill:#71439A;}
	.st1{fill:#A286BF;}
</style>

	
	
	
	<g
   transform="matrix(1.5418313,0,0,1.5418313,-17.543915,-36.029892)"
   id="g12"
   style="fill:#71439a"><path
     class="st0"
     d="m 176.6,196.9 c 0,0 -0.008,80.53879 -0.1,114.5 0,3.2 0.8,4 4,4 55.4,-0.1 110.8,0 166.3,-0.1 3.6,0 4.5,0.9 4.4,4.4 -0.2,17.6 -0.2,35.3 0,52.9 0,3.8 -1.3,4.3 -4.6,4.3 -55,-0.1 -110.1,-0.1 -165.1,0 -5.5,0 -4.9,-0.7 -4.9,4.8 0,39 0,77.9 0.1,116.9 0,3.4 -0.8,4.5 -4.4,4.5 -18.3,-0.2 -36.5,-0.1 -54.8,0 -3,0 -3.8,-0.8 -3.8,-3.9 0.1,-86.5 0.58256,-257.36977 0.58256,-257.36977 z"
     id="path6"
     inkscape:connector-curvature="0"
     style="fill:#71439a"
     sodipodi:nodetypes="ccccccccscccccc" /><path
     class="st0"
     d="M 278.5,39.151138 484.80152,192.35106 451.23724,242.69055 275.93012,109.92667 88.974385,242.69058 56.3,192.35112 Z"
     id="path8"
     inkscape:connector-curvature="0"
     style="fill:#71439a"
     sodipodi:nodetypes="ccccccc" /><path
     class="st0"
     d="m 364.2,190.7 c 6.2,4.5 11.6,8.5 17.1,12.4 14.4,10.5 28.6,20.9 43,31.3 2,1.4 2.9,2.8 2.9,5.3 -0.1,86.4 -0.1,172.8 0,259.2 0,3.1 -0.9,3.8 -3.9,3.8 -18.4,-0.1 -36.8,-0.1 -55.2,0 -2.8,0 -4,-0.5 -4,-3.7 0.1,-101.7 0.1,-203.4 0.1,-305.2 z"
     id="path10"
     inkscape:connector-curvature="0"
     style="fill:#71439a" /></g>

</svg>