<?xml version="1.0" encoding="UTF-8" standalone="no"?>
<!-- Generator: Adobe Illustrator 19.2.0, SVG Export Plug-In . SVG Version: 6.00 Build 0)  -->

<svg
   xmlns:dc="http://purl.org/dc/elements/1.1/"
   xmlns:cc="http://creativecommons.org/ns#"
   xmlns:rdf="http://www.w3.org/1999/02/22-rdf-syntax-ns#"
   xmlns:svg="http://www.w3.org/2000/svg"
   xmlns="http://www.w3.org/2000/svg"
   xmlns:sodipodi="http://sodipodi.sourceforge.net/DTD/sodipodi-0.dtd"
   xmlns:inkscape="http://www.inkscape.org/namespaces/inkscape"
   version="1.1"
   id="Layer_1"
   x="0px"
   y="0px"
   viewBox="0 0 800 800"
   style="enable-background:new 0 0 800 800;"
   xml:space="preserve"
   sodipodi:docname="icon.svg"
   inkscape:version="0.92.4 (5da689c313, 2019-01-14)"><metadata
   id="metadata63"><rdf:RDF><cc:Work
       rdf:about=""><dc:format>image/svg+xml</dc:format><dc:type
         rdf:resource="http://purl.org/dc/dcmitype/StillImage" /><dc:title></dc:title></cc:Work></rdf:RDF></metadata><defs
   id="defs61" /><sodipodi:namedview
   pagecolor="#ffffff"
   bordercolor="#666666"
   borderopacity="1"
   objecttolerance="10"
   gridtolerance="10"
   guidetolerance="10"
   inkscape:pageopacity="0"
   inkscape:pageshadow="2"
   inkscape:window-width="1600"
   inkscape:window-height="877"
   id="namedview59"
   showgrid="false"
   inkscape:zoom="0.59"
   inkscape:cx="408.90961"
   inkscape:cy="413.3736"
   inkscape:window-x="-8"
   inkscape:window-y="-8"
   inkscape:window-maximized="1"
   inkscape:current-layer="g56" />
<style
   type="text/css"
   id="style2">
	.st0{fill:#71439A;}
	.st1{fill:#A286BF;}
</style>
<g
   id="g56">
	
	
	
	<g
   id="g927"
   transform="matrix(1.709952,0,0,1.709952,-61.776489,-83.510787)"><path
     id="path4"
     d="m 176.6,196.9 c 0,3 0,5.3 0,7.6 0,35.6 0,71.2 -0.1,106.9 0,3.2 0.8,4 4,4 55.4,-0.1 110.8,0 166.3,-0.1 3.6,0 4.5,0.9 4.4,4.4 -0.2,17.6 -0.2,35.3 0,52.9 0,3.8 -1.3,4.3 -4.6,4.3 -55,-0.1 -110.1,-0.1 -165.1,0 -5.5,0 -4.9,-0.7 -4.9,4.8 0,39 0,77.9 0.1,116.9 0,3.4 -0.8,4.5 -4.4,4.5 -18.3,-0.2 -36.5,-0.1 -54.8,0 -3,0 -3.8,-0.8 -3.8,-3.9 0.1,-86.5 0.1,-173.2 0,-259.7 0,-2 0.1,-3.4 2.2,-4.7 19.5,-12.1 39,-24.2 58.5,-36.4 0.5,-0.7 1.1,-0.9 2.2,-1.5 z"
     class="st0"
     inkscape:connector-curvature="0"
     style="fill:#71439a" /><path
     id="path8"
     d="m 278.5,62.5 c 0.9,0.7 1.7,1.3 2.5,1.8 57.4,43.3 114.9,86.6 172.3,130 10.9,8.3 21.7,16.5 32.6,24.7 1.5,1.1 2.3,1.8 0.8,3.8 -6.8,8.6 -13.4,17.3 -20.1,26.1 -1.4,1.8 -2.3,2.1 -4.1,0.6 -60.3,-45.6 -120.8,-91.2 -181.1,-136.8 -3,-2.3 -4.8,-2.4 -8,-0.2 -65,44.9 -130.3,89.7 -195.3,134.8 -2.8,1.8 -3.8,1.5 -5.5,-1 -5.6,-8.5 -11.4,-16.9 -17.3,-25.2 -1.8,-2.6 -1.6,-3.7 1,-5.4 56.5,-38.8 113.1,-77.8 169.6,-116.7 16.5,-11.5 33.2,-22.9 49.8,-34.4 0.9,-0.9 1.8,-1.4 2.8,-2.1 z"
     class="st0"
     inkscape:connector-curvature="0"
     style="fill:#71439a" /><path
     id="path10"
     d="m 364.2,190.7 c 6.2,4.5 11.6,8.5 17.1,12.4 14.4,10.5 28.6,20.9 43,31.3 2,1.4 2.9,2.8 2.9,5.3 -0.1,86.4 -0.1,172.8 0,259.2 0,3.1 -0.9,3.8 -3.9,3.8 -18.4,-0.1 -36.8,-0.1 -55.2,0 -2.8,0 -4,-0.5 -4,-3.7 0.1,-101.7 0.1,-203.4 0.1,-305.2 0,-0.7 0,-1.5 0,-3.1 z"
     class="st0"
     inkscape:connector-curvature="0"
     style="fill:#71439a" /></g>
	
	
	
	
	
	
	
	
	
	
	
	
	
	
	
	
	
	
	
	
	
	
</g>
</svg>